<?xml version="1.0" encoding="UTF-8" standalone="no"?>
<svg width="218px" height="271px" viewBox="0 0 218 271" version="1.1" xmlns="http://www.w3.org/2000/svg" xmlns:xlink="http://www.w3.org/1999/xlink" xmlns:sketch="http://www.bohemiancoding.com/sketch/ns">
    <!-- Generator: Sketch 3.0.1 (7597) - http://www.bohemiancoding.com/sketch -->
    <title>logo</title>
    <description>Created with Sketch.</description>
    <defs></defs>
    <g id="Logo-Exploration" stroke="none" stroke-width="1" fill="none" fill-rule="evenodd" sketch:type="MSPage">
        <g id="O-+-Oval-1-+-Oval-1-+-Fill-11-+-Fill-13-+-Fill-26-copy" sketch:type="MSLayerGroup">
            <g id="O-+-Oval-1" fill="#3498DB" sketch:type="MSShapeGroup">
                <path d="M218,135.5 C218,156.799228 215.964101,175.811636 211.892241,192.537795 C207.820382,209.263953 201.368148,223.452785 192.535345,235.104716 C183.702542,246.756646 172.395471,255.652073 158.613793,261.791262 C144.832115,267.930451 128.294349,271 109,271 C89.7056507,271 73.1992065,267.930451 59.4801724,261.791262 C45.7611383,255.652073 34.485389,246.756646 25.6525862,235.104716 C16.8197834,223.452785 10.3362276,209.263953 6.20172414,192.537795 C2.06722071,175.811636 0,156.799228 0,135.5 C0,114.200772 2.06722071,95.1570419 6.20172414,78.3682386 C10.3362276,61.5794352 16.8197834,47.3906035 25.6525862,35.8013176 C34.485389,24.2120317 45.7611383,15.3479271 59.4801724,9.20873786 C73.1992065,3.06954859 89.7056507,0 109,0 C128.294349,0 144.832115,3.03822667 158.613793,9.11477115 C172.395471,15.1913156 183.702542,24.0240983 192.535345,35.6133842 C201.368148,47.2026701 207.820382,61.3915018 211.892241,78.1803051 C215.964101,94.9691084 218,114.075482 218,135.5 Z M172,135.5 C172,119.354005 170.869448,105.242116 168.608309,93.1639105 C166.34717,81.0857048 162.704278,71.0415446 157.679525,63.0311284 C152.654772,55.0207122 146.122691,49.0129902 138.083086,45.0077821 C130.043481,41.002574 120.245359,39 108.688427,39 C97.0058763,39 87.113542,41.002574 79.0111276,45.0077821 C70.9087132,49.0129902 64.3452279,55.0207122 59.3204748,63.0311284 C54.2957217,71.0415446 50.6528303,81.0857048 48.3916914,93.1639105 C46.1305525,105.242116 45,119.354005 45,135.5 C45,151.645995 46.1305525,165.757884 48.3916914,177.836089 C50.6528303,189.914295 54.3271259,199.958455 59.4146884,207.968872 C64.502251,215.979288 71.0971405,221.98701 79.1995549,225.992218 C87.3019693,229.997426 97.1314951,232 108.688427,232 C120.245359,232 130.043481,230.028716 138.083086,226.086089 C146.122691,222.143463 152.654772,216.167031 157.679525,208.156615 C162.704278,200.146199 166.34717,190.102038 168.608309,178.023833 C170.869448,165.945627 172,151.771158 172,135.5 Z" id="O"></path>
            </g>
            <ellipse id="Oval-1" fill="#3498DB" sketch:type="MSShapeGroup" cx="109" cy="138" rx="76" ry="109"></ellipse>
            <g id="Fill-11-+-Fill-13-+-Fill-26-copy" transform="translate(15.941635, 31.640957)" fill="#FFFFFF" sketch:type="MSShapeGroup">
                <path d="M54.126996,24.9887724 C62.0116765,22.6369329 69.9289952,23.4733341 77.643614,26.4697198 C80.7493879,27.6833638 84.0406838,30.2313695 87.2460898,30.617235 C92.9955508,31.3070504 108.697918,26.98277 110.83142,26.6033716 C128.270478,23.4388434 151.598138,23.5509384 166.216576,37.9271227 C171.766773,43.3809758 174.812424,50.641283 180.57391,55.5885529 C181.821029,56.6685452 182.880909,57.5890176 184.280912,58.3176351 C187.628895,60.0658861 187.974172,66.9748185 181.140782,65.3709977 C179.603355,64.9980663 178.117462,64.7092061 176.593778,64.5065728 C164.902463,63.0514934 153.389799,66.4984148 141.720815,66.4057208 C139.460196,71.4823311 135.981661,76.4576248 132.267787,79.9304143 C128.911215,83.0626074 111.791667,92.7760706 110.032645,85.9318083 C109.616938,84.3754123 112.733019,83.4182934 113.354861,82.9763804 C116.220144,80.954359 119.793158,76.8952264 121.34948,73.2154924 C113.291303,75.6039782 105.47018,79.3828733 97.6421871,82.7371007 C88.1170121,86.804856 66.3765945,98.4648921 50.8528781,133.636855 C49.0921379,137.63994 47.4602324,141.793923 45.8042777,145.887546 C48.7159407,149.565124 49.1917701,172.788191 46.1426834,175.806134 C43.3942108,173.342199 42.2776439,166.099138 38.5362857,167.864634 C33.9291586,170.02893 24.0724491,188.145207 22.6844704,184.277929 C21.7620143,181.71699 26.6096327,165.991354 27.8945436,162.902274 C29.5779831,158.817274 34.379221,152.158399 33.7109986,139.588669 C32.4432657,115.656386 39.0155506,96.2639498 47.8673499,75.3690098 C53.9569343,60.9992925 75.4723207,39.3347773 52.7957046,28.6986859 C51.8388926,27.411749 53.0035579,25.3229017 54.126996,24.9887724 Z" id="Fill-13-copy" transform="translate(104.563427, 104.224132) rotate(-20.000000) translate(-104.563427, -104.224132) "></path>
            </g>
        </g>
    </g>
</svg>