<?xml version="1.0" encoding="UTF-8" standalone="no"?>
<svg width="256px" height="271px" viewBox="0 0 256 271" version="1.1" xmlns="http://www.w3.org/2000/svg" xmlns:xlink="http://www.w3.org/1999/xlink" xmlns:sketch="http://www.bohemiancoding.com/sketch/ns">
    <!-- Generator: Sketch 3.0.1 (7597) - http://www.bohemiancoding.com/sketch -->
    <title>logo</title>
    <description>Created with Sketch.</description>
    <defs></defs>
    <g id="Logo-Exploration" stroke="none" stroke-width="1" fill="none" fill-rule="evenodd" sketch:type="MSPage">
        <g id="O-+-Oval-1-+-Oval-1-+-Fill-11-+-Fill-13-+-Fill-26-copy" sketch:type="MSLayerGroup" transform="translate(25.000000, 17.000000)">
            <g id="O-+-Oval-1-+-Oval-1">
                <g id="O-+-Oval-1"></g>
                <g id="O-+-Oval-1"></g>
            </g>
            <g id="Fill-11-+-Fill-13-+-Fill-26-copy" transform="translate(14.866071, 29.648438)"></g>
        </g>
        <path d="M201.865459,241.106244 C192.187691,251.143166 127.139928,297.727654 56.6924696,245.452735 C1.82388586,197.657265 23.5880001,74.7652496 56.6924691,38.9766348 C100.086164,-10.6800708 167.306076,-4.8644207 201.865463,38.9766353 C234.746368,80.3333515 247.974068,202.258202 201.865459,241.106244 Z M67.826454,87.2712897 C74.0154404,82.6862086 81.2493922,80.8827797 88.9934549,81.0358847 C92.1134253,81.1039592 95.8219819,82.2811802 98.7657777,81.5924145 C104.045261,80.3549753 116.48521,71.5385299 118.241789,70.5229129 C132.579719,62.1658619 153.144116,54.7922054 170.590918,62.6998991 C177.213571,65.6983966 182.20799,71.081102 188.855108,73.568283 C190.296835,74.1146368 191.522942,74.5812635 192.98721,74.7709318 C196.490732,75.2296097 198.996785,81.1695251 192.472093,81.953704 C191.000265,82.1195449 189.600585,82.342505 188.195132,82.6530831 C177.442809,85.1235106 168.410201,91.8296504 158.111786,95.4860361 C157.740566,100.655958 156.265269,106.12725 154.103951,110.358099 C152.148499,114.176228 140.179199,128.16618 136.449643,122.73572 C135.587718,121.505855 138.024834,119.669579 138.431205,119.083398 C140.308179,116.394863 142.158644,111.69564 142.355324,107.974619 C136.025338,112.647364 130.347154,118.461834 124.527562,123.906601 C117.441862,130.519846 102.026597,147.69457 99.5764825,183.468695 C99.3029796,187.538366 99.190951,191.698919 99.0385197,195.814316 C102.773043,198.102358 110.594072,218.287583 108.872795,221.907169 C105.668728,220.629708 102.377426,214.644222 99.6477255,217.388711 C96.2832531,220.759753 93.3837277,239.782201 90.9296023,236.839996 C89.3015351,234.892711 88.555001,219.568277 88.7011043,216.451455 C88.8804711,212.334807 90.9831284,204.965457 86.3885141,194.171529 C77.6445374,173.618852 77.2469508,154.530804 78.3764494,133.39681 C79.1550583,118.862023 91.1833905,92.9979394 67.8374244,90.9466627 C66.5852087,90.1260918 66.9443156,87.9237399 67.826454,87.2712897 Z" id="Path-8" fill="#FFFFFF" sketch:type="MSShapeGroup"></path>
    </g>
</svg>