<?xml version="1.0" encoding="UTF-8" standalone="no"?>
<svg width="150px" height="150px" viewBox="0 0 150 150" version="1.1" xmlns="http://www.w3.org/2000/svg" xmlns:xlink="http://www.w3.org/1999/xlink" xmlns:sketch="http://www.bohemiancoding.com/sketch/ns">
    <!-- Generator: Sketch 3.0.1 (7597) - http://www.bohemiancoding.com/sketch -->
    <title>Untitled 2</title>
    <description>Created with Sketch.</description>
    <defs>
        <path id="path-1" d="M96.6655426,104.461746 C78.3323746,118.720879 73.8001245,119.82751 61.0177193,123.202316 C52.9924029,125.322801 36.777195,124.628227 36.777195,124.628227 L0,88.2375359 L14.8381716,54.9330891 L53.253052,51.9403473 L29.8492154,29.0187922 L59.4939833,5 L117.239433,69.6287231 C117.239433,69.6287231 114.183907,86.7396851 96.6655426,104.461746 Z"></path>
    </defs>
    <g id="Page-1" stroke="none" stroke-width="1" fill="none" fill-rule="evenodd" sketch:type="MSPage">
        <circle id="Oval-1" fill="#BDC3C7" sketch:type="MSShapeGroup" cx="75" cy="75" r="75"></circle>
        <g id="Path-10-+-Rectangle-2-+-" sketch:type="MSLayerGroup" transform="translate(30.000000, 25.000000)">
            <mask id="mask-2" sketch:name="Path 10" fill="white">
                <use xlink:href="#path-1"></use>
            </mask>
            <use id="Path-10" sketch:type="MSShapeGroup" xlink:href="#path-1"></use>
            <path d="M5.85012201,-45.08379 L-75.3186236,33.2999565 L38.0303695,157.008725 C38.0303695,157.008725 66.6747621,155.264098 68.5964149,153.408379 C73.9082014,152.691146 90.5535148,144.927008 99.5463443,138.354531 C121.341683,122.425245 124.137183,110.604341 132.689993,91.5139304 C141.242803,72.4235197 5.85012201,-45.08379 5.85012201,-45.08379 Z" id="Rectangle-2" fill-opacity="0.362318841" fill="#95A5A6" sketch:type="MSShapeGroup" mask="url(#mask-2)"></path>
            <path d="M45.5,36 C50.8212701,36 55.4015352,34.2527647 59.2409326,30.7582418 C63.0803301,27.2637188 65,23.0110141 65,18 C65,12.9889859 63.0803301,8.73628121 59.2409326,5.24175824 C55.4015352,1.74723527 50.8212701,0 45.5,0 C40.1787299,0 35.5984648,1.74723527 31.7590674,5.24175824 C27.9196699,8.73628121 26,12.9889859 26,18 C26,23.0110141 27.9196699,27.2637188 31.7590674,30.7582418 C35.5984648,34.2527647 40.1787299,36 45.5,36 L45.5,36 Z M60.9375,37 C56.3333103,40.1111267 51.2213823,41.6666667 45.6015625,41.6666667 C39.9817427,41.6666667 34.8698147,40.1111267 30.265625,37 C21.3280803,38.8148239 14.0495073,41.9907181 8.4296875,46.5277778 C2.80986773,51.0648375 0,56.1203425 0,61.6944444 L0,86.7777778 C0,87.6851897 0.304684453,88.4305526 0.9140625,89.0138889 C1.52344055,89.5972251 2.30207859,89.8888889 3.25,89.8888889 L9.75,89.8888889 C10.6979214,89.8888889 11.4765595,89.6296322 12.0859375,89.1111111 C12.6953155,88.59259 13,87.9444483 13,87.1666667 L13,67.5277778 C13,66.7499961 13.4739536,66.4259253 14.421875,66.5555556 L15.234375,66.5555556 C16.5885484,66.5555556 17.265625,67.2036972 17.265625,68.5 L17.46875,86 C17.875002,91.4444717 18.5520786,94.2314808 19.5,94.3611111 C20.0416694,94.8796322 20.8541613,95.4305526 21.9375,96.0138889 C23.0208387,96.5972251 25.7968527,97.4074022 30.265625,98.4444444 C34.7343973,99.4814867 39.8124716,100 45.5,100 C51.1875284,100 56.2317488,99.5463008 60.6328125,98.6388889 C65.0338762,97.7314769 67.9114516,96.7592644 69.265625,95.7222222 L71.5,94.3611111 C72.4479214,94.2314808 73.124998,91.4444717 73.53125,86 L73.734375,68.5 C73.734375,67.2036972 74.4453054,66.5555556 75.8671875,66.5555556 C77.2890696,66.5555556 78,67.2036972 78,68.5 L78,87.1666667 C78,87.9444483 78.3046845,88.59259 78.9140625,89.1111111 C79.5234405,89.6296322 80.3020786,89.8888889 81.25,89.8888889 L87.75,89.8888889 C88.6979214,89.8888889 89.4765595,89.5972251 90.0859375,89.0138889 C90.6953155,88.4305526 91,87.6851897 91,86.7777778 L91,61.6944444 C91,56.1203425 88.2239861,51.0648375 82.671875,46.5277778 C77.1197639,41.9907181 69.8750447,38.8148239 60.9375,37 L60.9375,37 Z" id="" fill="#ECF0F1" sketch:type="MSShapeGroup"></path>
        </g>
    </g>
</svg>